<svg width="24" height="24" viewBox="0 0 24 24" fill="none" xmlns="http://www.w3.org/2000/svg">
<path d="M15.477 12.8916L16.992 21.4176C17.009 21.518 16.9949 21.6211 16.9516 21.7133C16.9084 21.8055 16.838 21.8823 16.7499 21.9334C16.6619 21.9845 16.5603 22.0074 16.4588 21.9993C16.3573 21.9911 16.2607 21.9521 16.182 21.8876L12.602 19.2006C12.4292 19.0714 12.2192 19.0017 12.0035 19.0017C11.7878 19.0017 11.5778 19.0714 11.405 19.2006L7.819 21.8866C7.74032 21.951 7.64386 21.9899 7.5425 21.9981C7.44113 22.0063 7.33967 21.9834 7.25166 21.9324C7.16365 21.8815 7.09328 21.8049 7.04992 21.7129C7.00656 21.6209 6.99229 21.5179 7.009 21.4176L8.523 12.8916M18 8.00156C18 11.3153 15.3137 14.0016 12 14.0016C8.68629 14.0016 6 11.3153 6 8.00156C6 4.68785 8.68629 2.00156 12 2.00156C15.3137 2.00156 18 4.68785 18 8.00156Z" stroke="#C1834E" stroke-width="2" stroke-linecap="round" stroke-linejoin="round"/>
</svg>
