<svg width="12" height="15" viewBox="0 0 12 15" fill="none" xmlns="http://www.w3.org/2000/svg">
<path d="M11.3334 5.99999C11.3334 9.32866 7.64075 12.7953 6.40075 13.866C6.28523 13.9529 6.14461 13.9998 6.00008 13.9998C5.85555 13.9998 5.71493 13.9529 5.59941 13.866C4.35941 12.7953 0.666748 9.32866 0.666748 5.99999C0.666748 4.5855 1.22865 3.22895 2.22885 2.22875C3.22904 1.22856 4.58559 0.666656 6.00008 0.666656C7.41457 0.666656 8.77112 1.22856 9.77132 2.22875C10.7715 3.22895 11.3334 4.5855 11.3334 5.99999Z" stroke="#99A1AF" stroke-width="1.33333" stroke-linecap="round" stroke-linejoin="round"/>
<path d="M6.00008 7.99999C7.10465 7.99999 8.00008 7.10456 8.00008 5.99999C8.00008 4.89542 7.10465 3.99999 6.00008 3.99999C4.89551 3.99999 4.00008 4.89542 4.00008 5.99999C4.00008 7.10456 4.89551 7.99999 6.00008 7.99999Z" stroke="#99A1AF" stroke-width="1.33333" stroke-linecap="round" stroke-linejoin="round"/>
</svg>
