<svg width="61" height="63" viewBox="0 0 61 63" fill="none" xmlns="http://www.w3.org/2000/svg">
<path d="M30.5034 41.7459C25.1355 41.7459 19.9875 39.6259 16.1919 35.8521C12.3962 32.0783 10.2638 26.9599 10.2638 21.623C10.2638 16.286 12.3962 11.1677 16.1919 7.39388C19.9875 3.62009 25.1355 1.5 30.5034 1.5C35.8713 1.5 41.0193 3.62009 44.815 7.39388C48.6106 11.1677 50.743 16.286 50.743 21.623C50.743 26.9599 48.6106 32.0783 44.815 35.8521C41.0193 39.6259 35.8713 41.7459 30.5034 41.7459ZM30.5034 41.7459L41.9725 61.5L47.363 50.6571L59.5 51.4352L48.0309 31.6845M12.9691 31.6845L1.5 51.4385L13.637 50.6571L19.0275 61.4966L30.4966 41.7459" stroke="black" stroke-width="3" stroke-linecap="round" stroke-linejoin="round"/>
</svg>
