<svg width="12" height="15" viewBox="0 0 12 15" fill="none" xmlns="http://www.w3.org/2000/svg">
<path d="M11.3334 5.99999C11.3334 9.32866 7.64069 12.7953 6.40069 13.866C6.28517 13.9529 6.14455 13.9998 6.00002 13.9998C5.85549 13.9998 5.71487 13.9529 5.59935 13.866C4.35935 12.7953 0.666687 9.32866 0.666687 5.99999C0.666687 4.5855 1.22859 3.22895 2.22878 2.22875C3.22898 1.22856 4.58553 0.666656 6.00002 0.666656C7.41451 0.666656 8.77106 1.22856 9.77126 2.22875C10.7715 3.22895 11.3334 4.5855 11.3334 5.99999Z" stroke="#99A1AF" stroke-width="1.33333" stroke-linecap="round" stroke-linejoin="round"/>
<path d="M6.00002 7.99999C7.10459 7.99999 8.00002 7.10456 8.00002 5.99999C8.00002 4.89542 7.10459 3.99999 6.00002 3.99999C4.89545 3.99999 4.00002 4.89542 4.00002 5.99999C4.00002 7.10456 4.89545 7.99999 6.00002 7.99999Z" stroke="#99A1AF" stroke-width="1.33333" stroke-linecap="round" stroke-linejoin="round"/>
</svg>
