<svg width="34" height="34" viewBox="0 0 34 34" fill="none" xmlns="http://www.w3.org/2000/svg">
<path d="M23.3337 1.66669C22.4496 1.66669 21.6018 2.01788 20.9766 2.643C20.3515 3.26812 20.0003 4.11597 20.0003 5.00002V15C20.0003 15.8841 20.3515 16.7319 20.9766 17.357C21.6018 17.9822 22.4496 18.3334 23.3337 18.3334C23.7757 18.3334 24.1996 18.5089 24.5122 18.8215C24.8247 19.1341 25.0003 19.558 25.0003 20V21.6667C25.0003 22.5507 24.6491 23.3986 24.024 24.0237C23.3989 24.6488 22.551 25 21.667 25C21.225 25 20.801 25.1756 20.4885 25.4882C20.1759 25.8007 20.0003 26.2247 20.0003 26.6667V30C20.0003 30.442 20.1759 30.866 20.4885 31.1785C20.801 31.4911 21.225 31.6667 21.667 31.6667C24.3192 31.6667 26.8627 30.6131 28.7381 28.7378C30.6134 26.8624 31.667 24.3189 31.667 21.6667V5.00002C31.667 4.11597 31.3158 3.26812 30.6907 2.643C30.0656 2.01788 29.2177 1.66669 28.3337 1.66669H23.3337Z" stroke="#C1834E" stroke-opacity="0.2" stroke-width="3.33333" stroke-linecap="round" stroke-linejoin="round"/>
<path d="M5.00033 1.66669C4.11627 1.66669 3.26842 2.01788 2.6433 2.643C2.01818 3.26812 1.66699 4.11597 1.66699 5.00002V15C1.66699 15.8841 2.01818 16.7319 2.6433 17.357C3.26842 17.9822 4.11627 18.3334 5.00033 18.3334C5.44235 18.3334 5.86628 18.5089 6.17884 18.8215C6.4914 19.1341 6.66699 19.558 6.66699 20V21.6667C6.66699 22.5507 6.3158 23.3986 5.69068 24.0237C5.06556 24.6488 4.21771 25 3.33366 25C2.89163 25 2.46771 25.1756 2.15515 25.4882C1.84259 25.8007 1.66699 26.2247 1.66699 26.6667V30C1.66699 30.442 1.84259 30.866 2.15515 31.1785C2.46771 31.4911 2.89163 31.6667 3.33366 31.6667C5.98582 31.6667 8.52936 30.6131 10.4047 28.7378C12.2801 26.8624 13.3337 24.3189 13.3337 21.6667V5.00002C13.3337 4.11597 12.9825 3.26812 12.3573 2.643C11.7322 2.01788 10.8844 1.66669 10.0003 1.66669H5.00033Z" stroke="#C1834E" stroke-opacity="0.2" stroke-width="3.33333" stroke-linecap="round" stroke-linejoin="round"/>
</svg>
