<svg width="29" height="25" viewBox="0 0 29 25" fill="none" xmlns="http://www.w3.org/2000/svg">
<path fill-rule="evenodd" clip-rule="evenodd" d="M29 12.5C29 12.9144 28.8303 13.3119 28.5281 13.6049L17.2503 24.5424C16.6212 25.1525 15.601 25.1525 14.9719 24.5424C14.3428 23.9322 14.3428 22.9428 14.9719 22.3327L23.4993 14.0625H1.61111C0.721294 14.0625 0 13.363 0 12.5C0 11.637 0.721294 10.9375 1.61111 10.9375H23.4993L14.9719 2.66736C14.3428 2.05716 14.3428 1.06785 14.9719 0.457641C15.601 -0.152547 16.6212 -0.152547 17.2503 0.457641L28.5281 11.3952C28.8303 11.6881 29 12.0856 29 12.5Z" fill="#BC5322"/>
</svg>
