<svg width="43" height="43" viewBox="0 0 43 43" fill="none" xmlns="http://www.w3.org/2000/svg">
<path d="M14.8333 41.5V28.1667C14.8333 26.9879 15.3016 25.8575 16.1351 25.024C16.9686 24.1905 18.099 23.7222 19.2778 23.7222H23.7222C24.901 23.7222 26.0314 24.1905 26.8649 25.024C27.6984 25.8575 28.1667 26.9879 28.1667 28.1667V41.5M5.94444 21.5H1.5L21.5 1.5L41.5 21.5H37.0556V37.0556C37.0556 38.2343 36.5873 39.3648 35.7538 40.1983C34.9203 41.0317 33.7899 41.5 32.6111 41.5H10.3889C9.21015 41.5 8.07969 41.0317 7.24619 40.1983C6.4127 39.3648 5.94444 38.2343 5.94444 37.0556V21.5Z" stroke="black" stroke-width="3" stroke-linecap="round" stroke-linejoin="round"/>
</svg>
