<svg width="19" height="19" viewBox="0 0 19 19" fill="none" xmlns="http://www.w3.org/2000/svg">
<path d="M10.6935 12.9733C10.8656 13.0524 11.0595 13.0704 11.2432 13.0245C11.427 12.9786 11.5896 12.8715 11.7043 12.7208L12.0002 12.3333C12.1554 12.1263 12.3567 11.9583 12.5881 11.8426C12.8196 11.7269 13.0748 11.6666 13.3335 11.6666H15.8335C16.2755 11.6666 16.6994 11.8422 17.012 12.1548C17.3246 12.4674 17.5002 12.8913 17.5002 13.3333V15.8333C17.5002 16.2753 17.3246 16.6993 17.012 17.0118C16.6994 17.3244 16.2755 17.5 15.8335 17.5C11.8552 17.5 8.03994 15.9196 5.22689 13.1066C2.41385 10.2935 0.833496 6.47823 0.833496 2.49998C0.833496 2.05795 1.00909 1.63403 1.32165 1.32147C1.63421 1.00891 2.05814 0.833313 2.50016 0.833313H5.00016C5.44219 0.833313 5.86611 1.00891 6.17867 1.32147C6.49123 1.63403 6.66683 2.05795 6.66683 2.49998V4.99998C6.66683 5.25872 6.60659 5.51391 6.49087 5.74534C6.37516 5.97676 6.20716 6.17807 6.00016 6.33331L5.61016 6.62581C5.45718 6.74263 5.34935 6.9088 5.30499 7.0961C5.26063 7.28341 5.28248 7.48029 5.36683 7.65331C6.50573 9.96653 8.37885 11.8373 10.6935 12.9733Z" stroke="white" stroke-width="1.66667" stroke-linecap="round" stroke-linejoin="round"/>
</svg>
