<svg width="43" height="43" viewBox="0 0 43 43" fill="none" xmlns="http://www.w3.org/2000/svg">
<path d="M1.5 11.5H41.5M41.5 21.5H1.5M1.5 31.5H41.5M14 1.5V11.5M26.5 11.5V21.5M11.5 21.5V31.5M31.5 21.5V31.5M19 31.5V41.5M1.5 6.5C1.5 5.17392 2.02678 3.90215 2.96447 2.96447C3.90215 2.02678 5.17392 1.5 6.5 1.5H36.5C37.8261 1.5 39.0979 2.02678 40.0355 2.96447C40.9732 3.90215 41.5 5.17392 41.5 6.5V36.5C41.5 37.8261 40.9732 39.0979 40.0355 40.0355C39.0979 40.9732 37.8261 41.5 36.5 41.5H6.5C5.17392 41.5 3.90215 40.9732 2.96447 40.0355C2.02678 39.0979 1.5 37.8261 1.5 36.5V6.5Z" stroke="black" stroke-width="3" stroke-linecap="round" stroke-linejoin="round"/>
</svg>
