<svg width="30" height="30" viewBox="0 0 30 30" fill="none" xmlns="http://www.w3.org/2000/svg">
<path d="M10.3293 11.8627C10.3293 12.069 10.4113 12.2668 10.5571 12.4126C10.7029 12.5585 10.9006 12.6405 11.1068 12.6405C11.313 12.6405 11.5107 12.5585 11.6565 12.4126C11.8023 12.2668 11.8842 12.069 11.8842 11.8627V10.3071C11.8842 10.1008 11.8023 9.90301 11.6565 9.75715C11.5107 9.61129 11.313 9.52935 11.1068 9.52935C10.9006 9.52935 10.7029 9.61129 10.5571 9.75715C10.4113 9.90301 10.3293 10.1008 10.3293 10.3071V11.8627ZM10.3293 11.8627C10.3293 13.9255 11.1484 15.9038 12.6064 17.3624C14.0644 18.821 16.0419 19.6404 18.1038 19.6404M18.1038 19.6404H19.6587C19.8649 19.6404 20.0626 19.5585 20.2084 19.4126C20.3542 19.2668 20.4361 19.069 20.4361 18.8627C20.4361 18.6564 20.3542 18.4586 20.2084 18.3127C20.0626 18.1668 19.8649 18.0849 19.6587 18.0849H18.1038C17.8976 18.0849 17.6999 18.1668 17.5541 18.3127C17.4083 18.4586 17.3264 18.6564 17.3264 18.8627C17.3264 19.069 17.4083 19.2668 17.5541 19.4126C17.6999 19.5585 17.8976 19.6404 18.1038 19.6404ZM1 28.9737L3.56557 23.0626C1.60277 20.2752 0.724267 16.8669 1.09492 13.4775C1.46557 10.088 3.0599 6.9504 5.5787 4.65344C8.09751 2.35648 11.3676 1.05808 14.7754 1.0019C18.1831 0.945724 21.4942 2.13563 24.0873 4.34832C26.6804 6.56101 28.3772 9.64437 28.8593 13.0198C29.3413 16.3951 28.5756 19.8305 26.7056 22.6812C24.8357 25.5318 21.9902 27.6018 18.7031 28.5026C15.4159 29.4034 11.9132 29.0731 8.8522 27.5737L1 28.9737Z" stroke="black" stroke-width="2" stroke-linecap="round" stroke-linejoin="round"/>
</svg>
