<svg width="43" height="43" viewBox="0 0 43 43" fill="none" xmlns="http://www.w3.org/2000/svg">
<path d="M1.5 41.4999V37.0555C1.5 34.698 2.4365 32.4371 4.10349 30.7701C5.77049 29.1031 8.03141 28.1666 10.3889 28.1666H19.2778C21.6353 28.1666 23.8962 29.1031 25.5632 30.7701C27.2302 32.4371 28.1667 34.698 28.1667 37.0555V41.4999M30.3889 1.7889C32.3009 2.27846 33.9956 3.39045 35.2059 4.94958C36.4161 6.50871 37.073 8.42629 37.073 10.4C37.073 12.3737 36.4161 14.2913 35.2059 15.8504C33.9956 17.4095 32.3009 18.5215 30.3889 19.0111M41.5 41.5V37.0556C41.4887 35.0937 40.8287 33.1907 39.6228 31.6431C38.4169 30.0956 36.7329 28.9905 34.8333 28.5M5.94444 10.3889C5.94444 12.7464 6.88095 15.0073 8.54794 16.6743C10.2149 18.3413 12.4759 19.2778 14.8333 19.2778C17.1908 19.2778 19.4517 18.3413 21.1187 16.6743C22.7857 15.0073 23.7222 12.7464 23.7222 10.3889C23.7222 8.0314 22.7857 5.77048 21.1187 4.10349C19.4517 2.4365 17.1908 1.5 14.8333 1.5C12.4759 1.5 10.2149 2.4365 8.54794 4.10349C6.88095 5.77048 5.94444 8.0314 5.94444 10.3889Z" stroke="black" stroke-width="3" stroke-linecap="round" stroke-linejoin="round"/>
</svg>
