<svg width="42" height="43" viewBox="0 0 42 43" fill="none" xmlns="http://www.w3.org/2000/svg">
<path d="M14.4762 40.4189V27.4459C14.4762 26.2991 14.9319 25.1992 15.7431 24.3882C16.5542 23.5772 17.6544 23.1216 18.8016 23.1216H22.2619M38.2659 18.7973L20.9643 1.5L1.5 20.9595H5.8254V36.0946C5.8254 37.2415 6.28111 38.3414 7.09227 39.1524C7.90344 39.9633 9.00362 40.4189 10.1508 40.4189H19.1455M33.9405 38.2568C32.7933 38.2568 31.6931 37.8012 30.882 36.9902C30.0708 36.1792 29.6151 35.0793 29.6151 33.9324C29.6151 32.7855 30.0708 31.6856 30.882 30.8747C31.6931 30.0637 32.7933 29.6081 33.9405 29.6081M33.9405 38.2568C35.0876 38.2568 36.1878 37.8012 36.999 36.9902C37.8102 36.1792 38.2659 35.0793 38.2659 33.9324C38.2659 32.7855 37.8102 31.6856 36.999 30.8747C36.1878 30.0637 35.0876 29.6081 33.9405 29.6081M33.9405 38.2568V41.5M33.9405 29.6081V26.3649M40.4978 30.1486L37.6885 31.7703M30.1989 36.0946L27.3874 37.7162M27.3874 30.1486L30.1989 31.7703M37.6885 36.0946L40.5 37.7162" stroke="black" stroke-width="3" stroke-linecap="round" stroke-linejoin="round"/>
</svg>
